<svg xmlns="http://www.w3.org/2000/svg" viewBox="0 0 190 100" role="img" aria-label="United States flag">
  <rect width="190" height="100" fill="#ffffff"/>
  <g fill="#b22234">
    <rect y="0" width="190" height="7.692"/>
    <rect y="15.384" width="190" height="7.692"/>
    <rect y="30.768" width="190" height="7.692"/>
    <rect y="46.152" width="190" height="7.692"/>
    <rect y="61.536" width="190" height="7.692"/>
    <rect y="76.92" width="190" height="7.692"/>
    <rect y="92.304" width="190" height="7.696"/>
  </g>
  <rect width="76" height="53.846" fill="#3c3b6e"/>
  <g fill="#ffffff">
    <circle cx="8" cy="6.5" r="2.1"/>
    <circle cx="20" cy="6.5" r="2.1"/>
    <circle cx="32" cy="6.5" r="2.1"/>
    <circle cx="44" cy="6.5" r="2.1"/>
    <circle cx="56" cy="6.5" r="2.1"/>
    <circle cx="68" cy="6.5" r="2.1"/>

    <circle cx="14" cy="13.5" r="2.1"/>
    <circle cx="26" cy="13.5" r="2.1"/>
    <circle cx="38" cy="13.5" r="2.1"/>
    <circle cx="50" cy="13.5" r="2.1"/>
    <circle cx="62" cy="13.5" r="2.1"/>

    <circle cx="8" cy="20.5" r="2.1"/>
    <circle cx="20" cy="20.5" r="2.1"/>
    <circle cx="32" cy="20.5" r="2.1"/>
    <circle cx="44" cy="20.5" r="2.1"/>
    <circle cx="56" cy="20.5" r="2.1"/>
    <circle cx="68" cy="20.5" r="2.1"/>

    <circle cx="14" cy="27.5" r="2.1"/>
    <circle cx="26" cy="27.5" r="2.1"/>
    <circle cx="38" cy="27.5" r="2.1"/>
    <circle cx="50" cy="27.5" r="2.1"/>
    <circle cx="62" cy="27.5" r="2.1"/>

    <circle cx="8" cy="34.5" r="2.1"/>
    <circle cx="20" cy="34.5" r="2.1"/>
    <circle cx="32" cy="34.5" r="2.1"/>
    <circle cx="44" cy="34.5" r="2.1"/>
    <circle cx="56" cy="34.5" r="2.1"/>
    <circle cx="68" cy="34.5" r="2.1"/>

    <circle cx="14" cy="41.5" r="2.1"/>
    <circle cx="26" cy="41.5" r="2.1"/>
    <circle cx="38" cy="41.5" r="2.1"/>
    <circle cx="50" cy="41.5" r="2.1"/>
    <circle cx="62" cy="41.5" r="2.1"/>

    <circle cx="8" cy="48.5" r="2.1"/>
    <circle cx="20" cy="48.5" r="2.1"/>
    <circle cx="32" cy="48.5" r="2.1"/>
    <circle cx="44" cy="48.5" r="2.1"/>
    <circle cx="56" cy="48.5" r="2.1"/>
    <circle cx="68" cy="48.5" r="2.1"/>
  </g>
</svg>
